<?xml version="1.0" standalone="no"?>
<!DOCTYPE svg PUBLIC "-//W3C//DTD SVG 20010904//EN"
 "http://www.w3.org/TR/2001/REC-SVG-20010904/DTD/svg10.dtd">
<svg version="1.0" xmlns="http://www.w3.org/2000/svg"
 width="1024.000000pt" height="1024.000000pt" viewBox="0 0 1024.000000 1024.000000"
 preserveAspectRatio="xMidYMid meet" fill="currentColor" >

<g transform="translate(0.000000,1024.000000) scale(0.100000,-0.100000)"
stroke="none">
<path fill="currentColor" d="M1456 7334 c-152 -37 -318 -170 -389 -311 -72 -146 -68 -24 -65
-1928 l3 -1710 23 -65 c48 -133 132 -242 246 -318 89 -60 155 -86 256 -101 56
-9 963 -11 3635 -9 3431 3 3562 4 3615 21 176 60 314 171 387 315 79 153 74
20 71 1932 -3 1626 -4 1708 -21 1760 -53 156 -172 297 -307 363 -150 73 198
67 -3795 66 -3070 -1 -3609 -3 -3659 -15z m7249 -413 c49 -23 89 -64 109 -113
14 -33 16 -216 16 -1666 0 -1819 5 -1698 -69 -1765 -22 -20 -57 -41 -78 -47
-27 -8 -1024 -10 -3585 -8 l-3546 3 -43 30 c-23 17 -52 48 -63 70 l-21 40 -3
1655 c-3 1819 -6 1703 57 1764 62 59 -202 55 3646 55 3425 1 3541 0 3580 -18z"/>
<path fill="currentColor" d="M2037 6572 c-15 -9 -36 -35 -47 -58 -18 -37 -20 -62 -20 -328 0 -424
-29 -396 400 -396 288 0 307 1 338 20 59 36 62 56 62 385 0 327 -2 338 -63
375 -30 19 -52 20 -337 20 -271 -1 -308 -2 -333 -18z"/>
<path fill="currentColor" d="M3093 6571 c-61 -38 -63 -49 -63 -376 0 -329 3 -349 62 -385 32 -20
46 -20 346 -18 l314 3 34 37 34 38 0 320 0 320 -34 38 -34 37 -314 3 c-297 2
-315 1 -345 -17z"/>
<path fill="currentColor" d="M4159 6567 c-59 -40 -59 -41 -57 -390 l3 -319 37 -34 38 -34 310 0
c344 0 353 1 390 63 19 30 20 52 20 335 0 335 -2 345 -63 382 -30 19 -52 20
-338 20 -302 0 -306 0 -340 -23z"/>
<path fill="currentColor" d="M5223 6570 c-61 -37 -63 -47 -63 -382 0 -283 1 -305 20 -335 37 -61
47 -63 383 -63 300 0 305 0 338 23 58 39 59 43 59 375 0 335 -2 345 -63 382
-30 19 -52 20 -337 20 -285 0 -307 -1 -337 -20z"/>
<path fill="currentColor" d="M6293 6570 c-61 -37 -63 -47 -63 -382 0 -283 1 -305 20 -335 37 -61
47 -63 380 -63 333 0 343 2 380 63 19 30 20 52 20 335 0 335 -2 345 -63 382
-30 19 -52 20 -337 20 -285 0 -307 -1 -337 -20z"/>
<path fill="currentColor" d="M7363 6570 c-61 -37 -63 -48 -63 -375 0 -329 3 -349 62 -385 31 -19
50 -20 340 -20 l307 0 36 31 c21 19 39 46 45 71 7 25 10 144 8 326 -3 314 -3
313 -65 353 -26 17 -53 19 -333 19 -285 0 -307 -1 -337 -20z"/>
<path fill="currentColor" d="M2563 5550 c-61 -37 -63 -47 -63 -382 0 -286 1 -305 20 -336 36 -59
57 -62 382 -62 424 0 398 -26 398 398 0 325 -3 346 -62 382 -31 19 -50 20
-338 20 -285 0 -307 -1 -337 -20z"/>
<path fill="currentColor" d="M3623 5550 c-61 -37 -63 -48 -63 -375 0 -329 3 -349 62 -385 31 -19
50 -20 337 -20 291 0 305 1 338 21 62 38 63 45 63 382 0 300 0 305 -23 338
-39 58 -43 59 -377 59 -285 0 -307 -1 -337 -20z"/>
<path fill="currentColor" d="M4686 5551 c-55 -36 -55 -40 -56 -379 0 -278 2 -317 17 -343 34 -58
51 -60 397 -57 l315 3 31 30 c16 16 35 46 41 68 6 24 9 148 7 325 -3 262 -5
289 -22 315 -38 56 -47 57 -388 57 -293 0 -315 -1 -342 -19z"/>
<path fill="currentColor" d="M5775 5560 c-11 -4 -31 -20 -45 -35 l-25 -27 -5 -276 c-6 -347 -4
-373 38 -415 l32 -32 313 -3 c446 -4 417 -31 417 396 0 325 -3 346 -62 382
-31 19 -49 20 -338 19 -168 0 -314 -4 -325 -9z"/>
<path fill="currentColor" d="M6823 5550 c-61 -37 -63 -47 -63 -382 0 -283 1 -305 20 -335 37 -61
47 -63 380 -63 333 0 343 2 380 63 19 30 20 52 20 338 0 302 0 306 -23 340
-39 58 -43 59 -377 59 -285 0 -307 -1 -337 -20z"/>
<path fill="currentColor" d="M2985 4543 c-38 -10 -84 -53 -95 -91 -7 -24 -10 -138 -8 -329 3 -277
4 -293 24 -320 11 -15 36 -36 55 -45 32 -17 156 -18 2157 -18 2344 0 2164 -5
2218 66 l29 37 0 303 c0 290 -1 304 -21 330 -11 15 -33 37 -48 48 l-27 21
-2132 1 c-1173 1 -2141 0 -2152 -3z"/>
</g>
</svg>
